<?xml version="1.0" standalone="no"?>
<!DOCTYPE svg PUBLIC "-//W3C//DTD SVG 20010904//EN"
 "http://www.w3.org/TR/2001/REC-SVG-20010904/DTD/svg10.dtd">
<svg version="1.0" xmlns="http://www.w3.org/2000/svg"
 width="512.000000pt" height="512.000000pt" viewBox="0 0 512.000000 512.000000"
 preserveAspectRatio="xMidYMid meet">

<g transform="translate(0.000000,512.000000) scale(0.100000,-0.100000)"
fill="#000000" stroke="none">
<path d="M2417 3983 c-4 -3 -7 -107 -7 -230 l0 -223 -450 0 -450 0 0 -220 0
-220 -225 0 -225 0 0 -230 0 -230 -189 0 c-188 0 -190 0 -197 -22 -4 -13 -7
-94 -8 -181 l0 -159 -43 7 c-96 14 -180 53 -245 113 l-28 26 0 -36 c0 -61 -67
-108 -215 -151 -47 -14 -31 -15 246 -16 319 -1 309 1 309 -51 0 -30 49 -179
87 -265 151 -337 479 -599 875 -700 182 -46 310 -58 553 -52 623 15 1133 191
1546 533 150 124 331 331 422 481 l32 52 410 2 c352 1 403 3 360 14 -146 37
-225 92 -225 156 l0 31 -42 -36 c-51 -44 -104 -70 -183 -91 -75 -20 -260 -32
-268 -18 -4 6 25 76 64 157 l70 146 80 0 c247 0 467 117 563 300 20 37 36 70
36 73 0 11 -98 60 -166 83 -97 32 -216 40 -324 20 -88 -16 -99 -13 -100 26 0
35 -51 152 -95 218 -46 69 -206 230 -229 230 -7 0 -32 -26 -56 -57 -79 -107
-105 -197 -105 -363 1 -129 17 -197 68 -294 37 -70 38 -69 -90 -116 -123 -44
-232 -60 -414 -60 l-159 0 0 230 0 230 -225 0 -225 0 0 450 0 450 -263 0
c-145 0 -267 -3 -270 -7z m463 -268 l0 -195 -195 0 -195 0 0 195 0 195 195 0
195 0 0 -195z m-910 -450 l0 -195 -190 0 -190 0 0 195 0 195 190 0 190 0 0
-195z m460 0 l0 -195 -195 0 -195 0 0 195 0 195 195 0 195 0 0 -195z m450 0
l0 -195 -195 0 -195 0 0 195 0 195 195 0 195 0 0 -195z m1361 86 c114 -119
167 -227 177 -358 2 -40 6 -73 7 -73 1 0 28 9 61 20 78 27 216 41 295 30 78
-11 179 -48 179 -65 0 -21 -77 -113 -123 -147 -104 -77 -282 -124 -440 -116
l-68 3 -38 -90 c-56 -133 -120 -255 -136 -261 -19 -8 -109 22 -162 52 l-42 25
-22 -22 c-36 -36 -127 -71 -222 -85 -260 -39 -625 20 -711 115 l-19 21 -35
-32 c-78 -67 -245 -118 -392 -118 -147 0 -314 51 -392 118 l-35 32 -19 -22
c-28 -31 -129 -74 -217 -92 -305 -63 -633 -35 -721 62 l-18 21 -37 -24 c-54
-35 -161 -64 -266 -71 l-93 -7 -7 68 c-8 71 -2 191 10 203 4 4 689 10 1523 13
1148 4 1528 8 1562 17 139 38 247 83 332 139 l38 26 -28 31 c-92 105 -133 257
-113 417 15 114 64 239 94 239 7 0 42 -31 78 -69z m-2721 -536 l0 -195 -190 0
-190 0 0 195 0 195 190 0 190 0 0 -195z m450 0 l0 -195 -190 0 -190 0 0 195 0
195 190 0 190 0 0 -195z m450 0 l0 -195 -190 0 -190 0 0 195 0 195 190 0 190
0 0 -195z m460 0 l0 -195 -195 0 -195 0 0 195 0 195 195 0 195 0 0 -195z m450
0 l0 -195 -195 0 -195 0 0 195 0 195 195 0 195 0 0 -195z m-1304 -859 c28 -28
34 -42 34 -76 0 -34 -6 -48 -34 -76 -46 -46 -101 -48 -148 -5 -29 26 -33 35
-33 81 0 46 4 55 33 81 47 43 102 41 148 -5z m-237 -336 c84 -153 203 -271
367 -364 l79 -46 -60 -1 c-369 -4 -623 54 -863 196 -81 48 -226 160 -270 207
l-23 25 238 6 c221 5 361 19 448 46 17 5 32 10 35 10 3 0 25 -35 49 -79z"/>
<path d="M2520 3715 c0 -140 2 -165 15 -165 13 0 15 25 15 165 0 140 -2 165
-15 165 -13 0 -15 -25 -15 -165z"/>
<path d="M2580 3715 c0 -140 2 -165 15 -165 13 0 15 25 15 165 0 140 -2 165
-15 165 -13 0 -15 -25 -15 -165z"/>
<path d="M2632 3718 c3 -137 5 -163 18 -163 13 0 15 26 18 163 2 158 2 162
-18 162 -20 0 -20 -4 -18 -162z"/>
<path d="M2692 3718 c3 -137 5 -163 18 -163 13 0 15 26 18 163 2 158 2 162
-18 162 -20 0 -20 -4 -18 -162z"/>
<path d="M2752 3718 c3 -137 5 -163 18 -163 13 0 15 26 18 163 2 158 2 162
-18 162 -20 0 -20 -4 -18 -162z"/>
<path d="M2812 3718 c3 -137 5 -163 18 -163 13 0 15 26 18 163 2 158 2 162
-18 162 -20 0 -20 -4 -18 -162z"/>
<path d="M1620 3265 c0 -158 1 -165 20 -165 19 0 20 7 20 165 0 158 -1 165
-20 165 -19 0 -20 -7 -20 -165z"/>
<path d="M1670 3265 c0 -158 1 -165 20 -165 19 0 20 7 20 165 0 158 -1 165
-20 165 -19 0 -20 -7 -20 -165z"/>
<path d="M1730 3265 c0 -158 1 -165 20 -165 19 0 20 7 20 165 0 158 -1 165
-20 165 -19 0 -20 -7 -20 -165z"/>
<path d="M1790 3265 c0 -158 1 -165 20 -165 19 0 20 7 20 165 0 158 -1 165
-20 165 -19 0 -20 -7 -20 -165z"/>
<path d="M1850 3265 c0 -158 1 -165 20 -165 19 0 20 7 20 165 0 158 -1 165
-20 165 -19 0 -20 -7 -20 -165z"/>
<path d="M1910 3265 c0 -158 1 -165 20 -165 19 0 20 7 20 165 0 158 -1 165
-20 165 -19 0 -20 -7 -20 -165z"/>
<path d="M2070 3265 c0 -140 2 -165 15 -165 13 0 15 25 15 165 0 140 -2 165
-15 165 -13 0 -15 -25 -15 -165z"/>
<path d="M2130 3265 c0 -140 2 -165 15 -165 13 0 15 25 15 165 0 140 -2 165
-15 165 -13 0 -15 -25 -15 -165z"/>
<path d="M2190 3265 c0 -140 2 -165 15 -165 13 0 15 25 15 165 0 140 -2 165
-15 165 -13 0 -15 -25 -15 -165z"/>
<path d="M2245 3418 c-3 -8 -4 -81 -3 -163 3 -125 5 -150 18 -150 13 0 15 24
15 159 0 119 -3 160 -12 163 -7 3 -15 -2 -18 -9z"/>
<path d="M2305 3418 c-3 -8 -4 -81 -3 -163 3 -125 5 -150 18 -150 13 0 15 24
15 159 0 119 -3 160 -12 163 -7 3 -15 -2 -18 -9z"/>
<path d="M2365 3418 c-3 -8 -4 -81 -3 -163 3 -125 5 -150 18 -150 13 0 15 24
15 159 0 119 -3 160 -12 163 -7 3 -15 -2 -18 -9z"/>
<path d="M2520 3265 c0 -158 1 -165 20 -165 19 0 20 7 20 165 0 158 -1 165
-20 165 -19 0 -20 -7 -20 -165z"/>
<path d="M2580 3265 c0 -158 1 -165 20 -165 19 0 20 7 20 165 0 158 -1 165
-20 165 -19 0 -20 -7 -20 -165z"/>
<path d="M2630 3265 c0 -158 1 -165 20 -165 19 0 20 7 20 165 0 158 -1 165
-20 165 -19 0 -20 -7 -20 -165z"/>
<path d="M2690 3265 c0 -158 1 -165 20 -165 19 0 20 7 20 165 0 158 -1 165
-20 165 -19 0 -20 -7 -20 -165z"/>
<path d="M2750 3265 c0 -158 1 -165 20 -165 19 0 20 7 20 165 0 158 -1 165
-20 165 -19 0 -20 -7 -20 -165z"/>
<path d="M2810 3265 c0 -158 1 -165 20 -165 19 0 20 7 20 165 0 158 -1 165
-20 165 -19 0 -20 -7 -20 -165z"/>
<path d="M1160 2815 c0 -158 1 -165 20 -165 19 0 20 7 20 165 0 158 -1 165
-20 165 -19 0 -20 -7 -20 -165z"/>
<path d="M1220 2815 c0 -158 1 -165 20 -165 19 0 20 7 20 165 0 158 -1 165
-20 165 -19 0 -20 -7 -20 -165z"/>
<path d="M1280 2815 c0 -158 1 -165 20 -165 19 0 20 7 20 165 0 158 -1 165
-20 165 -19 0 -20 -7 -20 -165z"/>
<path d="M1340 2815 c0 -158 1 -165 20 -165 19 0 20 7 20 165 0 158 -1 165
-20 165 -19 0 -20 -7 -20 -165z"/>
<path d="M1400 2815 c0 -158 1 -165 20 -165 19 0 20 7 20 165 0 158 -1 165
-20 165 -19 0 -20 -7 -20 -165z"/>
<path d="M1460 2815 c0 -158 1 -165 20 -165 19 0 20 7 20 165 0 158 -1 165
-20 165 -19 0 -20 -7 -20 -165z"/>
<path d="M1620 2815 c0 -140 2 -165 15 -165 13 0 15 25 15 165 0 140 -2 165
-15 165 -13 0 -15 -25 -15 -165z"/>
<path d="M1672 2818 c3 -137 5 -163 18 -163 13 0 15 26 18 163 2 158 2 162
-18 162 -20 0 -20 -4 -18 -162z"/>
<path d="M1732 2818 c3 -137 5 -163 18 -163 13 0 15 26 18 163 2 158 2 162
-18 162 -20 0 -20 -4 -18 -162z"/>
<path d="M1792 2818 c3 -137 5 -163 18 -163 13 0 15 26 18 163 2 158 2 162
-18 162 -20 0 -20 -4 -18 -162z"/>
<path d="M1852 2818 c3 -137 5 -163 18 -163 13 0 15 26 18 163 2 158 2 162
-18 162 -20 0 -20 -4 -18 -162z"/>
<path d="M1912 2818 c3 -137 5 -163 18 -163 13 0 15 26 18 163 2 158 2 162
-18 162 -20 0 -20 -4 -18 -162z"/>
<path d="M2060 2815 c0 -158 1 -165 20 -165 19 0 20 7 20 165 0 158 -1 165
-20 165 -19 0 -20 -7 -20 -165z"/>
<path d="M2120 2815 c0 -158 1 -165 20 -165 19 0 20 7 20 165 0 158 -1 165
-20 165 -19 0 -20 -7 -20 -165z"/>
<path d="M2180 2815 c0 -158 1 -165 20 -165 19 0 20 7 20 165 0 158 -1 165
-20 165 -19 0 -20 -7 -20 -165z"/>
<path d="M2240 2815 c0 -158 1 -165 20 -165 19 0 20 7 20 165 0 158 -1 165
-20 165 -19 0 -20 -7 -20 -165z"/>
<path d="M2300 2815 c0 -158 1 -165 20 -165 19 0 20 7 20 165 0 158 -1 165
-20 165 -19 0 -20 -7 -20 -165z"/>
<path d="M2360 2815 c0 -158 1 -165 20 -165 19 0 20 7 20 165 0 158 -1 165
-20 165 -19 0 -20 -7 -20 -165z"/>
<path d="M2520 2815 c0 -140 2 -165 15 -165 13 0 15 25 15 165 0 140 -2 165
-15 165 -13 0 -15 -25 -15 -165z"/>
<path d="M2580 2815 c0 -140 2 -165 15 -165 13 0 15 25 15 165 0 140 -2 165
-15 165 -13 0 -15 -25 -15 -165z"/>
<path d="M2632 2818 c3 -137 5 -163 18 -163 13 0 15 26 18 163 2 158 2 162
-18 162 -20 0 -20 -4 -18 -162z"/>
<path d="M2692 2818 c3 -137 5 -163 18 -163 13 0 15 26 18 163 2 158 2 162
-18 162 -20 0 -20 -4 -18 -162z"/>
<path d="M2752 2818 c3 -137 5 -163 18 -163 13 0 15 26 18 163 2 158 2 162
-18 162 -20 0 -20 -4 -18 -162z"/>
<path d="M2812 2818 c3 -137 5 -163 18 -163 13 0 15 26 18 163 2 158 2 162
-18 162 -20 0 -20 -4 -18 -162z"/>
<path d="M2970 2815 c0 -158 1 -165 20 -165 19 0 20 7 20 165 0 158 -1 165
-20 165 -19 0 -20 -7 -20 -165z"/>
<path d="M3020 2815 c0 -158 1 -165 20 -165 19 0 20 7 20 165 0 158 -1 165
-20 165 -19 0 -20 -7 -20 -165z"/>
<path d="M3080 2815 c0 -158 1 -165 20 -165 19 0 20 7 20 165 0 158 -1 165
-20 165 -19 0 -20 -7 -20 -165z"/>
<path d="M3140 2815 c0 -158 1 -165 20 -165 19 0 20 7 20 165 0 158 -1 165
-20 165 -19 0 -20 -7 -20 -165z"/>
<path d="M3200 2815 c0 -158 1 -165 20 -165 19 0 20 7 20 165 0 158 -1 165
-20 165 -19 0 -20 -7 -20 -165z"/>
<path d="M3260 2815 c0 -158 1 -165 20 -165 19 0 20 7 20 165 0 158 -1 165
-20 165 -19 0 -20 -7 -20 -165z"/>
<path d="M1900 1930 c-11 -11 -20 -33 -20 -50 0 -87 133 -96 142 -9 2 19 -1
23 -18 21 -25 -3 -49 22 -40 43 8 23 -40 19 -64 -5z"/>
</g>
</svg>
