<?xml version="1.0" encoding="UTF-8"?>
<!-- Generator: https://ezgif.com/webp-to-svg -->
<svg version="1.1" xmlns="http://www.w3.org/2000/svg" width="512" height="512">
<path d="M0 0 C0.88 -0.01 1.76 -0.01 2.67 -0.02 C39.37 -0.25 39.37 -0.25 55.49 3.2 C56.47 3.41 57.45 3.61 58.46 3.82 C102.75 13.25 142.67 32.48 176.18 63.11 C178.14 64.89 180.13 66.58 182.18 68.27 C185.29 70.92 187.92 73.85 190.56 76.96 C192.7 79.45 194.93 81.82 197.18 84.2 C230.91 121.4 251.17 171.43 255.49 221.2 C255.6 222.46 255.71 223.72 255.82 225.02 C259.36 270.87 249.15 316.72 227.49 357.2 C226.87 358.36 226.26 359.52 225.63 360.71 C215.38 379.32 202.07 395.82 187.49 411.2 C186.78 411.96 186.78 411.96 186.05 412.72 C178.95 420.21 171.4 426.74 163.15 432.94 C161.63 434.1 160.13 435.28 158.64 436.47 C120.22 466.56 69.19 483.91 20.49 485.2 C19.67 485.23 18.85 485.25 18.01 485.27 C-37.23 486.5 -92.82 470.73 -136.51 436.2 C-137.51 435.42 -138.5 434.64 -139.52 433.83 C-155.35 421.1 -170.23 407.13 -182.34 390.78 C-183.41 389.35 -184.49 387.93 -185.58 386.52 C-217.4 344.35 -233 292.23 -232.89 239.77 C-232.89 238.8 -232.89 237.84 -232.89 236.84 C-232.84 221.28 -231.93 206.43 -228.51 191.2 C-228.31 190.25 -228.1 189.29 -227.89 188.31 C-223.23 166.91 -214.94 146.44 -204.51 127.2 C-204.04 126.31 -204.04 126.31 -203.55 125.41 C-198.57 116.13 -192.82 107.61 -186.51 99.2 C-186.09 98.64 -185.67 98.07 -185.24 97.49 C-158.34 61.47 -121.94 34.32 -80.51 17.2 C-79.74 16.88 -78.98 16.56 -78.19 16.23 C-53.92 6.29 -26.3 0.14 0 0 Z M-1.16 37.74 C-14.03 51.59 -15.61 70.49 -17.19 88.37 C-19.09 109.65 -21.4 132.44 -34.51 150.2 C-34.84 150.2 -35.17 150.2 -35.51 150.2 C-35.65 149.1 -35.65 149.1 -35.8 147.98 C-38.96 124.03 -41.88 103.18 -60.51 86.2 C-61.89 88.96 -61.46 91.41 -61.34 94.42 C-60.81 111.36 -65.11 126.17 -71.35 141.76 C-83.87 173.68 -94.68 212.49 -80.39 245.34 C-76.46 253.77 -71.22 261.86 -65.51 269.2 C-73.46 268.5 -81.15 266.92 -88.95 265.26 C-90.33 264.97 -91.71 264.68 -93.08 264.39 C-96.68 263.63 -100.28 262.87 -103.87 262.11 C-107.55 261.33 -111.23 260.55 -114.91 259.78 C-122.11 258.26 -129.31 256.73 -136.51 255.2 C-137.82 259.13 -136.59 261.37 -135.07 265.02 C-134.8 265.68 -134.53 266.35 -134.24 267.04 C-128.28 281.12 -115.72 307.1 -101.51 314.2 C-98.57 314.32 -95.65 314.37 -92.71 314.38 C-91.78 314.38 -90.86 314.39 -89.91 314.4 C-86.8 314.42 -83.69 314.43 -80.57 314.44 C-78.35 314.46 -76.13 314.47 -73.9 314.48 C-53.59 314.6 -33.28 314.66 -12.97 314.7 C-10.25 314.71 -7.53 314.71 -4.82 314.72 C-4.14 314.72 -3.46 314.72 -2.77 314.72 C8.17 314.75 19.11 314.81 30.05 314.87 C41.28 314.95 52.51 314.98 63.75 315 C70.05 315 76.36 315.03 82.66 315.08 C88.6 315.13 94.53 315.14 100.47 315.13 C102.64 315.13 104.82 315.14 107 315.17 C118.14 315.71 118.14 315.71 128.49 312.48 C130.53 310.49 131.99 308.62 133.49 306.2 C134.47 305.03 135.46 303.87 136.47 302.73 C142.49 295.08 147.46 287.07 151.99 278.45 C152.48 277.52 152.97 276.59 153.48 275.62 C156.84 269.01 159.32 262.29 161.49 255.2 C143.92 258.22 126.42 261.54 108.93 264.95 C107.89 265.16 106.85 265.36 105.78 265.57 C102.81 266.15 99.83 266.73 96.86 267.31 C95.51 267.58 95.51 267.58 94.13 267.85 C92.88 268.09 92.88 268.09 91.61 268.34 C90.88 268.49 90.16 268.63 89.41 268.77 C87.28 269.21 87.28 269.21 84.49 270.2 C84.86 269.53 85.22 268.86 85.6 268.16 C101.15 239.5 110.77 210.02 101.75 177.26 C101.34 175.91 100.92 174.55 100.49 173.2 C100.27 172.53 100.06 171.85 99.84 171.16 C96.4 160.68 91.57 150.96 86.49 141.2 C74.47 118.11 68.83 98.46 69.49 72.2 C53.99 83.21 49.83 107.56 46.84 125.04 C45.2 135.1 43.83 145.21 42.46 155.31 C42.27 156.66 42.27 156.66 42.08 158.04 C41.85 159.76 41.62 161.47 41.39 163.19 C40.6 168.98 40.6 168.98 39.49 171.2 C39.39 170.27 39.3 169.33 39.2 168.37 C35.92 136.44 30.69 106.66 17.74 77.02 C11.11 61.83 6.35 46.88 10.49 30.2 C6.05 30.2 1.95 34.84 -1.16 37.74 Z M-101.51 337.2 C-101.51 350.07 -101.51 362.94 -101.51 376.2 C-26.6 376.2 48.31 376.2 125.49 376.2 C125.49 363.33 125.49 350.46 125.49 337.2 C50.58 337.2 -24.33 337.2 -101.51 337.2 Z M-56.51 397.2 C-56.51 409.67 -53.27 418.53 -45.51 428.2 C-44.57 429.46 -44.57 429.46 -43.61 430.74 C-31.62 444.84 -11.6 451.04 6.18 452.82 C25.2 454.31 44.37 449.33 59.26 437.14 C68.98 428.67 77.33 419.37 79.49 406.2 C79.49 403.23 79.49 400.26 79.49 397.2 C34.61 397.2 -10.27 397.2 -56.51 397.2 Z " fill="#E75123" transform="translate(242.51171875,9.796875)"/>
</svg>
