<?xml version="1.0" standalone="no"?>
<!DOCTYPE svg PUBLIC "-//W3C//DTD SVG 20010904//EN"
 "http://www.w3.org/TR/2001/REC-SVG-20010904/DTD/svg10.dtd">
<svg version="1.0" xmlns="http://www.w3.org/2000/svg"
 width="512.000000pt" height="512.000000pt" viewBox="0 0 512.000000 512.000000"
 preserveAspectRatio="xMidYMid meet">

<g transform="translate(0.000000,512.000000) scale(0.100000,-0.100000)"
fill="#000000" stroke="none">
<path d="M2330 5030 c-698 -73 -1340 -432 -1744 -975 -117 -156 -167 -239
-251 -410 -118 -239 -186 -456 -227 -720 -31 -200 -31 -530 0 -730 41 -264
109 -481 227 -720 84 -171 134 -254 251 -410 380 -512 976 -862 1634 -962 161
-24 521 -24 680 0 663 102 1250 447 1634 962 116 155 167 239 251 410 118 239
186 456 227 720 28 185 31 520 5 700 -39 267 -116 515 -231 750 -85 171 -136
254 -252 410 -378 508 -979 863 -1624 960 -125 19 -460 27 -580 15z m369
-1008 c14 -10 36 -36 48 -58 11 -21 243 -574 514 -1229 420 -1015 493 -1197
492 -1236 -3 -137 -147 -216 -265 -145 -24 14 -331 259 -683 544 -352 286
-642 518 -645 516 -3 -1 -99 -241 -215 -533 l-210 -530 -187 -1 -187 0 32 78
c18 42 264 632 547 1311 415 994 521 1241 547 1267 54 54 151 62 212 16z"/>
<path d="M2436 3109 c-117 -297 -155 -404 -147 -412 27 -27 936 -745 940 -742
5 5 -622 1555 -629 1555 -3 0 -77 -180 -164 -401z"/>
</g>
</svg>
