<?xml version="1.0" standalone="no"?>
<!DOCTYPE svg PUBLIC "-//W3C//DTD SVG 20010904//EN"
 "http://www.w3.org/TR/2001/REC-SVG-20010904/DTD/svg10.dtd">
<svg version="1.0" xmlns="http://www.w3.org/2000/svg"
 width="512.000000pt" height="512.000000pt" viewBox="0 0 512.000000 512.000000"
 preserveAspectRatio="xMidYMid meet">

<g transform="translate(0.000000,512.000000) scale(0.100000,-0.100000)"
fill="#000000" stroke="none">
<path d="M1069 4366 c-88 -31 -152 -95 -177 -176 -6 -19 -99 -422 -207 -895
-108 -473 -275 -1204 -371 -1624 -189 -826 -187 -812 -136 -873 52 -62 -81
-58 1964 -58 1259 0 1885 4 1910 10 52 15 117 67 150 120 28 46 27 39 408
1710 56 245 153 670 216 945 63 275 125 548 136 606 l22 106 -25 48 c-13 27
-37 58 -52 69 -28 21 -30 21 -1915 23 -1525 2 -1894 0 -1923 -11z m843 -380
c52 -30 1203 -1257 1217 -1297 28 -80 -3 -183 -75 -250 -45 -43 -1695 -1229
-1744 -1254 -50 -26 -146 -17 -198 18 -105 69 -133 225 -56 316 13 16 362 273
774 572 459 331 750 548 750 558 -1 9 -218 247 -484 530 -418 443 -486 519
-496 557 -33 117 37 238 157 270 58 15 105 9 155 -20z m1603 -2398 c40 -22 81
-66 94 -101 29 -75 -2 -169 -70 -214 l-43 -28 -485 -3 c-267 -2 -501 0 -519 3
-65 12 -141 107 -142 178 0 66 48 137 115 168 38 18 69 19 530 17 435 -3 493
-5 520 -20z"/>
</g>
</svg>
