<?xml version="1.0" standalone="no"?>
<!DOCTYPE svg PUBLIC "-//W3C//DTD SVG 20010904//EN"
 "http://www.w3.org/TR/2001/REC-SVG-20010904/DTD/svg10.dtd">
<svg version="1.0" xmlns="http://www.w3.org/2000/svg"
 width="512.000000pt" height="512.000000pt" viewBox="0 0 512.000000 512.000000"
 preserveAspectRatio="xMidYMid meet">

<g transform="translate(0.000000,512.000000) scale(0.100000,-0.100000)"
fill="#000000" stroke="none">
<path d="M715 4060 c-74 -12 -221 -53 -285 -81 -81 -35 -91 -52 -88 -150 l3
-84 40 1 c22 0 78 15 125 32 111 40 221 62 314 62 188 0 294 -58 331 -182 9
-29 19 -107 22 -172 l6 -119 -24 6 c-175 42 -428 56 -539 28 -234 -58 -380
-235 -380 -461 0 -281 193 -452 495 -437 163 8 285 60 406 174 l55 52 23 -47
c24 -48 74 -117 101 -139 27 -22 56 -14 133 37 92 60 99 77 62 151 -59 116
-58 104 -65 539 -8 443 -9 452 -73 573 -52 98 -147 167 -282 202 -72 19 -296
28 -380 15z m365 -858 l95 -17 -1 -100 c-1 -79 -6 -111 -23 -151 -25 -58 -97
-132 -158 -164 -90 -46 -229 -64 -315 -40 -109 31 -171 164 -138 300 21 86 97
156 197 179 61 14 240 10 343 -7z"/>
<path d="M4173 4055 c-141 -31 -282 -130 -336 -237 -104 -205 -23 -439 189
-550 38 -20 139 -57 224 -83 214 -65 292 -103 325 -159 45 -78 30 -173 -38
-233 -61 -53 -123 -68 -282 -67 -151 0 -203 10 -348 65 -98 36 -115 37 -128 2
-16 -40 -5 -150 16 -173 26 -28 94 -59 192 -86 432 -119 818 29 884 338 17 77
7 184 -23 249 -60 132 -140 186 -401 270 -241 77 -318 116 -354 176 -21 37
-25 53 -21 99 5 61 26 96 78 132 52 35 107 46 225 46 125 0 198 -14 304 -55
79 -32 105 -31 115 4 11 41 6 118 -10 148 -48 94 -400 160 -611 114z"/>
<path d="M1621 4008 c-10 -29 -16 -7 223 -793 152 -498 199 -644 216 -657 19
-15 42 -18 141 -18 107 0 120 2 137 21 13 13 33 75 55 167 19 81 79 332 133
559 54 226 100 410 102 408 2 -1 64 -254 138 -561 83 -346 140 -564 150 -576
15 -16 33 -18 141 -18 145 0 149 2 181 101 94 288 412 1324 412 1342 0 40 -18
47 -119 47 -120 0 -138 -5 -157 -42 -8 -16 -81 -282 -160 -591 -80 -309 -147
-563 -149 -565 -5 -5 -5 -5 -135 548 -66 283 -127 538 -135 567 -22 75 -38 83
-168 83 -140 0 -144 -3 -181 -161 -150 -644 -245 -1031 -249 -1019 -4 8 -65
249 -137 535 -72 286 -138 541 -146 567 -23 71 -39 78 -172 78 -108 0 -113 -1
-121 -22z"/>
</g>
</svg>
