<?xml version="1.0" standalone="no"?>
<!DOCTYPE svg PUBLIC "-//W3C//DTD SVG 20010904//EN"
 "http://www.w3.org/TR/2001/REC-SVG-20010904/DTD/svg10.dtd">
<svg version="1.0" xmlns="http://www.w3.org/2000/svg"
 width="512.000000pt" height="512.000000pt" viewBox="0 0 512.000000 512.000000"
 preserveAspectRatio="xMidYMid meet">

<g transform="translate(0.000000,512.000000) scale(0.100000,-0.100000)"
fill="#000000" stroke="none">
<path d="M2315 4903 c-76 -7 -271 -43 -370 -68 -408 -103 -832 -354 -1130
-667 -360 -379 -570 -813 -650 -1343 -20 -131 -23 -440 -6 -590 83 -720 475
-1360 1076 -1754 122 -80 349 -196 468 -239 116 -42 175 -43 219 -3 l33 29 3
251 c3 285 13 260 -89 241 -30 -6 -108 -11 -174 -10 -198 0 -332 48 -445 160
-56 55 -76 86 -132 200 -53 108 -80 151 -132 207 -37 39 -86 83 -110 97 -48
28 -96 79 -96 102 0 25 69 47 130 41 129 -11 257 -103 356 -253 69 -105 147
-177 231 -217 110 -51 275 -50 418 4 51 19 51 19 64 80 16 79 49 152 95 212
24 31 32 49 24 51 -7 2 -60 11 -118 20 -563 87 -875 394 -946 930 -21 160 -15
378 15 491 27 103 106 263 168 340 l49 60 -19 60 c-25 80 -33 252 -17 352 6
43 23 113 37 157 l25 79 76 -6 c137 -10 315 -80 505 -199 l81 -51 71 17 c350
82 720 82 1070 0 l71 -17 74 48 c180 115 375 192 512 202 l76 6 25 -79 c52
-166 60 -363 19 -505 l-18 -65 46 -57 c68 -84 137 -222 167 -334 25 -91 27
-113 27 -293 0 -162 -4 -212 -22 -297 -28 -131 -73 -256 -125 -352 -58 -105
-212 -259 -321 -321 -154 -86 -339 -146 -531 -171 l-94 -12 33 -41 c40 -49 77
-121 102 -196 15 -48 18 -109 23 -493 l6 -439 34 -30 c31 -28 38 -30 95 -26
110 8 395 140 609 282 278 186 540 459 719 752 204 332 327 728 347 1114 32
638 -174 1242 -587 1720 -396 459 -954 753 -1557 820 -84 9 -420 11 -510 3z"/>
<path d="M1004 1475 c-8 -21 4 -35 32 -35 29 0 32 25 5 40 -26 13 -31 13 -37
-5z"/>
<path d="M1100 1375 c0 -25 32 -51 50 -40 14 8 12 39 -2 53 -21 21 -48 14 -48
-13z"/>
<path d="M1193 1264 c-10 -27 14 -64 42 -64 20 0 25 5 25 24 0 44 -53 76 -67
40z"/>
<path d="M1304 1125 c-10 -24 23 -65 52 -65 32 0 41 23 20 55 -19 28 -63 34
-72 10z"/>
<path d="M1471 1026 c-16 -19 -3 -45 24 -52 35 -9 59 -1 63 20 8 37 -62 63
-87 32z"/>
<path d="M1856 1014 c-20 -19 -20 -28 -2 -43 34 -28 97 5 83 43 -8 21 -60 21
-81 0z"/>
<path d="M1678 999 c-26 -15 -23 -47 6 -55 34 -8 57 -2 70 19 20 33 -36 60
-76 36z"/>
</g>
</svg>
