<?xml version="1.0" standalone="no"?>
<!DOCTYPE svg PUBLIC "-//W3C//DTD SVG 20010904//EN"
 "http://www.w3.org/TR/2001/REC-SVG-20010904/DTD/svg10.dtd">
<svg version="1.0" xmlns="http://www.w3.org/2000/svg"
 width="512.000000pt" height="512.000000pt" viewBox="0 0 512.000000 512.000000"
 preserveAspectRatio="xMidYMid meet">

<g transform="translate(0.000000,512.000000) scale(0.100000,-0.100000)"
fill="#000000" stroke="none">
<path d="M2430 4886 c-175 -74 -1722 -823 -1759 -851 -54 -42 -83 -84 -104
-150 -9 -27 -52 -210 -97 -405 -136 -597 -219 -954 -278 -1205 -65 -278 -70
-340 -31 -422 34 -75 1226 -1553 1282 -1591 23 -16 57 -34 76 -40 45 -16 2018
-17 2073 -2 90 26 112 50 736 825 384 476 614 770 630 805 42 89 37 144 -52
520 -43 179 -138 591 -212 915 -75 325 -145 611 -156 638 -45 104 -45 104
-989 553 -475 226 -877 416 -892 423 -49 19 -165 13 -227 -13z m192 -606 c40
-31 49 -88 32 -200 -19 -127 -18 -214 1 -230 8 -7 15 -23 15 -36 0 -19 7 -24
38 -29 320 -53 544 -158 755 -354 42 -39 51 -43 68 -33 10 7 32 12 49 12 25 0
50 19 143 109 61 59 122 113 134 120 41 21 92 14 124 -18 53 -53 30 -132 -52
-181 -142 -85 -224 -147 -234 -176 -6 -17 -16 -38 -23 -46 -10 -13 -3 -34 47
-129 114 -216 155 -389 154 -636 0 -121 3 -163 11 -163 7 0 23 -11 36 -25 26
-28 79 -41 226 -54 145 -13 194 -44 194 -124 0 -27 -7 -45 -24 -62 -48 -48
-84 -45 -260 19 -99 37 -140 43 -207 31 -34 -7 -38 -11 -69 -90 -87 -224 -270
-455 -466 -588 l-72 -49 0 -51 c0 -64 14 -99 82 -201 91 -138 101 -168 72
-225 -38 -73 -144 -64 -185 17 -10 20 -31 75 -46 122 -35 107 -71 179 -93 187
-9 3 -24 15 -33 25 -15 19 -17 19 -100 -5 -147 -44 -197 -51 -374 -52 -177 0
-221 6 -379 53 l-88 26 -17 -21 c-9 -11 -24 -23 -34 -26 -22 -8 -64 -99 -103
-221 -35 -112 -72 -156 -130 -156 -47 0 -77 19 -94 59 -18 45 -5 90 51 176 89
137 110 179 108 221 -1 22 1 46 4 54 5 11 -7 24 -40 45 -73 46 -213 165 -264
226 -109 128 -203 285 -254 421 l-17 47 -63 6 c-65 7 -92 1 -285 -70 -97 -36
-180 3 -180 83 0 81 48 108 213 123 136 12 168 20 208 53 17 14 37 26 44 26
10 0 13 10 10 33 -26 210 4 441 84 643 18 43 52 114 77 157 40 70 44 81 31 95
-8 10 -17 28 -20 42 -7 29 -63 73 -190 149 -96 58 -127 94 -127 149 0 70 87
115 153 81 12 -7 72 -61 134 -120 89 -88 117 -109 140 -109 16 0 38 -6 48 -14
18 -13 26 -8 93 55 192 179 433 289 735 334 30 5 37 10 37 29 0 13 7 30 16 37
17 14 17 37 -2 281 -7 85 4 129 40 153 29 21 89 19 118 -5z"/>
<path d="M2290 3484 c-155 -41 -307 -121 -418 -220 l-44 -39 219 -156 c120
-86 228 -159 240 -163 30 -10 91 18 102 47 5 13 14 109 20 213 6 104 14 224
17 267 6 76 6 77 -17 77 -13 -1 -67 -12 -119 -26z"/>
<path d="M2694 3433 c3 -43 11 -166 17 -273 12 -209 17 -228 67 -249 41 -17
57 -9 300 163 l210 149 -51 45 c-136 117 -334 210 -506 236 l-43 7 6 -78z"/>
<path d="M1622 2935 c-60 -122 -92 -239 -100 -370 -4 -60 -5 -129 -2 -151 l5
-41 260 74 c211 60 264 78 283 99 26 29 29 70 7 101 -13 18 -343 319 -396 360
-13 11 -21 1 -57 -72z"/>
<path d="M3300 2888 c-250 -223 -270 -244 -270 -281 0 -40 20 -71 57 -85 15
-6 132 -41 258 -77 127 -36 236 -68 244 -71 23 -7 9 260 -19 361 -24 90 -82
229 -108 261 -17 22 -18 21 -162 -108z"/>
<path d="M2431 2580 c-55 -66 -54 -60 -27 -170 11 -42 16 -47 75 -77 35 -18
72 -33 81 -33 9 0 46 15 81 33 l64 32 17 75 c12 57 14 79 5 90 -6 8 -29 36
-50 63 l-39 47 -78 0 -78 0 -51 -60z"/>
<path d="M2974 2200 c-28 -11 -54 -48 -54 -78 0 -18 191 -501 206 -520 5 -7
75 45 139 102 85 75 178 201 233 314 25 51 43 95 40 98 -5 4 -524 95 -538 93
-3 0 -15 -4 -26 -9z"/>
<path d="M1815 2159 c-126 -22 -231 -42 -233 -44 -12 -12 105 -221 166 -295
57 -71 221 -220 242 -220 10 0 202 473 207 512 5 30 1 41 -20 62 -35 35 -76
33 -362 -15z"/>
<path d="M2506 1968 c-24 -22 -281 -477 -273 -484 2 -2 39 -13 83 -24 105 -27
280 -36 381 -21 80 13 193 40 193 48 0 17 -256 463 -276 481 -14 12 -38 22
-54 22 -16 0 -40 -10 -54 -22z"/>
</g>
</svg>
