<?xml version="1.0" encoding="UTF-8"?>
<!-- Generator: https://ezgif.com/webp-to-svg -->
<svg version="1.1" xmlns="http://www.w3.org/2000/svg" width="512" height="512">
<path d="M0 0 C3.35 1.23 6.09 3.06 8.96 5.14 C9.83 5.75 9.83 5.75 10.71 6.38 C22.64 14.96 35.44 27.1 39.65 41.61 C40.87 45.72 41.92 48.58 44.59 51.95 C49.98 54.5 56.15 54.85 62.01 55.56 C65.86 56.14 69.46 57.23 73.15 58.45 C73.8 58.66 74.45 58.87 75.11 59.08 C79.9 60.65 84.6 62.43 89.25 64.35 C94.17 65.62 97.72 63.49 101.96 61.14 C114.52 54.76 128.83 51.95 142.92 53.15 C146.97 55.1 148.11 61.01 149.59 64.95 C149.98 65.98 150.38 67.01 150.79 68.07 C154 77.89 153.8 87.07 153 97.32 C152.68 103.82 152.68 103.82 155.42 109.54 C157.72 111.81 160.11 113.87 162.59 115.95 C164.54 118.09 166.32 120.34 168.09 122.64 C168.77 123.52 168.77 123.52 169.48 124.43 C194.94 157.78 205.9 195.79 207.54 237.35 C207.57 238.21 207.6 239.07 207.64 239.96 C207.59 241.95 207.59 241.95 206.59 242.95 C204.21 243.26 204.21 243.26 201.59 242.95 C198.37 239.69 197.52 235.75 196.4 231.45 C188.22 202.29 173.56 177.67 152.59 155.95 C151.78 155.09 150.97 154.23 150.13 153.34 C122.99 125.15 81.64 107.77 42.68 106.71 C12.36 106.29 -16.97 110.32 -44.41 123.95 C-45.07 124.27 -45.73 124.58 -46.41 124.91 C-57.81 130.5 -66.67 137.79 -75.41 146.95 C-75.92 147.48 -76.43 148.01 -76.96 148.56 C-106.84 180.35 -119.76 226.55 -118.73 269.29 C-117.42 302.59 -102.15 332.16 -79.41 355.95 C-78.87 356.55 -78.32 357.15 -77.76 357.76 C-54.08 382.83 -18.86 395.25 14.95 397.14 C40.47 397.64 64.01 389.19 83.59 372.95 C84.86 371.92 84.86 371.92 86.16 370.87 C104.55 355.29 116.67 332.84 119.59 308.95 C121.37 283.98 118.24 262.86 101.6 243.21 C100.6 242.09 100.6 242.09 99.59 240.95 C98.99 240.26 98.4 239.58 97.79 238.87 C84.16 224.11 64.01 215.96 44.22 214.96 C26.3 214.92 11.96 220.3 -1.1 232.45 C-1.86 233.27 -2.63 234.1 -3.41 234.95 C-3.87 235.4 -4.33 235.85 -4.8 236.32 C-14.69 246.73 -20.48 263.02 -20.79 277.2 C-20.11 293.02 -14.71 305.73 -3.01 316.6 C8.1 325.99 21.25 329.78 35.64 329.32 C40.42 328.87 44.49 327.7 48.94 325.92 C52.77 324.51 56.13 323.3 59.96 325.01 C61.59 326.95 61.59 326.95 61.99 329.84 C61.59 332.95 61.59 332.95 59.57 334.93 C58.64 335.47 57.72 336.01 56.77 336.57 C55.88 337.12 54.99 337.67 54.07 338.24 C44.59 342.9 36.73 344.57 26.15 344.39 C25.01 344.39 23.87 344.4 22.7 344.41 C11.89 344.33 2.07 342.28 -7.54 337.26 C-8.22 336.91 -8.9 336.56 -9.6 336.2 C-28.47 326.19 -40.27 309.79 -46.83 289.87 C-53.74 267.31 -48.22 241.85 -37.49 221.4 C-24.27 198.58 -1.82 181.7 23.53 174.69 C53.35 167.45 87.08 172.72 113.55 188.19 C117 190.31 120.3 192.59 123.59 194.95 C124.44 195.56 125.3 196.17 126.18 196.8 C149.91 214.85 166.46 240.01 173.59 268.95 C173.75 269.59 173.91 270.23 174.08 270.89 C176 278.87 176.68 286.6 176.55 294.81 C176.55 295.5 176.54 296.19 176.53 296.91 C176.47 300.41 176.37 303.9 176.21 307.4 C175.74 313.87 175.74 313.87 177.78 319.78 C179.53 321.25 179.53 321.25 182.59 322.95 C192.14 333.92 197.91 345.96 201.59 359.95 C201.97 361.11 201.97 361.11 202.37 362.3 C202.9 364.32 202.9 364.32 202.59 367.95 C193.86 378.66 176.77 383.75 163.59 385.95 C159.55 386.21 155.62 386.22 151.59 385.95 C151.38 386.62 151.17 387.29 150.96 387.98 C149.1 392.01 146.47 395.11 143.65 398.51 C143.06 399.22 142.48 399.93 141.88 400.66 C140.12 402.76 138.36 404.86 136.59 406.95 C136.11 407.51 135.64 408.07 135.16 408.65 C127.69 417.49 118.07 427.71 107.59 432.95 C107.26 435.44 107.03 437.89 106.84 440.39 C104.86 460.28 96.39 476.79 83.59 491.95 C83.16 492.7 82.73 493.45 82.29 494.22 C80.59 495.95 80.59 495.95 77.36 496.32 C55.95 494.2 37.13 481.64 23.17 466.02 C21.59 463.95 21.59 463.95 21.59 461.95 C20.75 461.96 19.92 461.98 19.06 462 C-1.86 462.34 -21.43 461.74 -41.59 455.58 C-46.92 453.92 -46.92 453.92 -52.41 453.95 C-54.58 455.19 -54.58 455.19 -56.66 456.95 C-78.13 472.6 -105.37 477.62 -131.41 476.95 C-139.87 454.59 -143.12 429 -135.72 405.78 C-134.93 403.45 -134.93 403.45 -134.41 399.95 C-135.88 397.24 -135.88 397.24 -138.48 395.07 C-148.15 385.4 -157.39 373.27 -163.41 360.95 C-163.41 360.29 -163.41 359.63 -163.41 358.95 C-164.02 358.94 -164.63 358.92 -165.26 358.91 C-188.99 357.62 -213.79 344.3 -231.41 328.95 C-232.68 327.85 -232.68 327.85 -233.96 326.73 C-236.48 324.5 -238.95 322.23 -241.41 319.95 C-242.22 319.26 -243.03 318.56 -243.86 317.85 C-244.97 316.85 -244.97 316.85 -246.1 315.82 C-246.77 315.24 -247.43 314.66 -248.11 314.07 C-249.41 311.95 -249.41 311.95 -249.37 308.78 C-248.21 304.15 -246.49 300.11 -244.41 295.82 C-244.01 294.99 -243.61 294.15 -243.19 293.29 C-232.56 271.76 -214.18 249.39 -191.62 239.76 C-188.1 236.87 -188.09 233.3 -187.41 228.95 C-187.06 227.04 -186.7 225.14 -186.34 223.23 C-186.15 222.23 -185.96 221.22 -185.76 220.18 C-183.9 210.33 -181.8 200.87 -178.12 191.52 C-176.98 188.51 -176.29 186.5 -177.03 183.32 C-178.62 180.59 -180.3 177.95 -182.04 175.32 C-198.89 148.65 -201.89 118.76 -201.41 87.95 C-172.8 76.53 -138.7 70.08 -108.95 81.93 C-104.13 83.83 -104.13 83.83 -99.14 83.24 C-96.73 81.91 -94.53 80.42 -92.29 78.82 C-84.7 73.85 -77.05 69.6 -68.79 65.82 C-67.32 65.13 -67.32 65.13 -65.81 64.43 C-59.76 61.69 -53.99 59.93 -47.41 58.95 C-47.27 58.26 -47.12 57.57 -46.97 56.86 C-44.08 43.95 -37.09 32.78 -28.41 22.95 C-27.73 22.13 -27.04 21.31 -26.33 20.47 C-8.56 -0.18 -8.56 -0.18 0 0 Z " fill="#F6A323" transform="translate(277.4140625,8.05078125)"/>
<path d="M0 0 C3.35 1.23 6.09 3.06 8.96 5.14 C9.83 5.75 9.83 5.75 10.71 6.38 C22.64 14.96 35.44 27.1 39.65 41.61 C40.87 45.72 41.92 48.58 44.59 51.95 C49.98 54.5 56.15 54.85 62.01 55.56 C65.86 56.14 69.46 57.23 73.15 58.45 C73.8 58.66 74.45 58.87 75.11 59.08 C79.9 60.65 84.6 62.43 89.25 64.35 C94.17 65.62 97.72 63.49 101.96 61.14 C114.52 54.76 128.83 51.95 142.92 53.15 C146.97 55.1 148.11 61.01 149.59 64.95 C149.98 65.98 150.38 67.01 150.79 68.07 C154 77.89 153.8 87.07 153 97.32 C152.68 103.82 152.68 103.82 155.42 109.54 C157.72 111.81 160.11 113.87 162.59 115.95 C164.54 118.09 166.32 120.34 168.09 122.64 C168.77 123.52 168.77 123.52 169.48 124.43 C194.94 157.78 205.9 195.79 207.54 237.35 C207.57 238.21 207.6 239.07 207.64 239.96 C207.59 241.95 207.59 241.95 206.59 242.95 C204.21 243.26 204.21 243.26 201.59 242.95 C198.37 239.69 197.52 235.75 196.4 231.45 C188.22 202.29 173.56 177.67 152.59 155.95 C151.78 155.09 150.97 154.23 150.13 153.34 C122.99 125.15 81.64 107.77 42.68 106.71 C12.36 106.29 -16.97 110.32 -44.41 123.95 C-45.07 124.27 -45.73 124.58 -46.41 124.91 C-57.81 130.5 -66.67 137.79 -75.41 146.95 C-75.92 147.48 -76.43 148.01 -76.96 148.56 C-101.64 174.82 -117 214.42 -118.56 250.2 C-118.63 251.81 -118.63 251.81 -118.7 253.46 C-118.72 254.44 -118.74 255.41 -118.76 256.42 C-119.41 258.95 -119.41 258.95 -121.77 260.79 C-125.23 262.31 -126.85 262.14 -130.41 260.95 C-133.47 260.79 -133.47 260.79 -136.41 261.95 C-139.41 261.95 -139.41 261.95 -142.41 260.95 C-145.47 260.79 -145.47 260.79 -148.41 261.95 C-151.41 261.95 -151.41 261.95 -154.41 260.95 C-157.47 260.79 -157.47 260.79 -160.41 261.95 C-163.41 261.95 -163.41 261.95 -166.41 260.95 C-169.47 260.79 -169.47 260.79 -172.41 261.95 C-175.41 261.95 -175.41 261.95 -178.41 260.95 C-181.47 260.79 -181.47 260.79 -184.41 261.95 C-187.41 261.95 -187.41 261.95 -190.41 260.95 C-193.47 260.79 -193.47 260.79 -196.41 261.95 C-199.41 261.95 -199.41 261.95 -202.41 260.95 C-205.47 260.79 -205.47 260.79 -208.41 261.95 C-211.41 261.95 -211.41 261.95 -214.41 260.95 C-217.57 262 -220.45 263.46 -223.41 264.95 C-215.6 254.9 -205.72 246.89 -194.26 241.38 C-191.73 240.04 -189.77 238.79 -188.63 236.09 C-188.08 233.72 -187.74 231.36 -187.41 228.95 C-187.06 227.04 -186.7 225.14 -186.34 223.23 C-186.15 222.23 -185.96 221.22 -185.76 220.18 C-183.9 210.33 -181.8 200.87 -178.12 191.52 C-176.98 188.51 -176.29 186.5 -177.03 183.32 C-178.62 180.59 -180.3 177.95 -182.04 175.32 C-198.89 148.65 -201.89 118.76 -201.41 87.95 C-172.8 76.53 -138.7 70.08 -108.95 81.93 C-104.13 83.83 -104.13 83.83 -99.14 83.24 C-96.73 81.91 -94.53 80.42 -92.29 78.82 C-84.7 73.85 -77.05 69.6 -68.79 65.82 C-67.32 65.13 -67.32 65.13 -65.81 64.43 C-59.76 61.69 -53.99 59.93 -47.41 58.95 C-47.27 58.26 -47.12 57.57 -46.97 56.86 C-44.08 43.95 -37.09 32.78 -28.41 22.95 C-27.73 22.13 -27.04 21.31 -26.33 20.47 C-8.56 -0.18 -8.56 -0.18 0 0 Z " fill="#F15E29" transform="translate(277.4140625,8.05078125)"/>
<path d="M0 0 C0.85 0.61 1.71 1.22 2.59 1.86 C30.03 22.72 47.61 53.11 52.51 87.16 C53.53 95.73 53.23 104.39 53 113 C52.01 112.34 51.02 111.68 50 111 C49.34 111 48.68 111 48 111 C47.34 111.66 46.68 112.32 46 113 C45.67 112.34 45.34 111.68 45 111 C43.93 111.24 43.93 111.24 42.84 111.49 C40 112 37.39 112.13 34.5 112.12 C33.58 112.13 32.66 112.13 31.72 112.13 C29.05 112 26.61 111.55 24 111 C20.11 110.86 16.74 110.93 13 112 C8.55 112 4.41 111.67 0 111 C-0.66 111.99 -1.32 112.98 -2 114 C-2.9 110.92 -3.12 108.16 -3.14 104.96 C-3.51 81.93 -8.33 63.65 -24 46 C-24.59 45.31 -25.18 44.63 -25.79 43.92 C-39.43 29.16 -59.57 21.01 -79.37 20.01 C-97.29 19.97 -111.63 25.35 -124.69 37.5 C-125.45 38.32 -126.21 39.15 -127 40 C-127.46 40.45 -127.92 40.9 -128.39 41.37 C-138.27 51.78 -144.06 68.07 -144.38 82.25 C-143.7 98.07 -138.29 110.78 -126.6 121.65 C-115.48 131.04 -102.34 134.83 -87.95 134.37 C-83.17 133.92 -79.09 132.75 -74.65 130.97 C-70.82 129.56 -67.46 128.35 -63.62 130.06 C-62 132 -62 132 -61.6 134.89 C-62 138 -62 138 -64.02 139.98 C-64.94 140.52 -65.86 141.06 -66.81 141.62 C-67.71 142.17 -68.6 142.72 -69.52 143.29 C-79 147.95 -86.86 149.62 -97.44 149.44 C-98.58 149.44 -99.71 149.45 -100.88 149.46 C-111.7 149.38 -121.52 147.33 -131.12 142.31 C-131.8 141.96 -132.48 141.61 -133.18 141.25 C-152.05 131.24 -163.85 114.84 -170.41 94.92 C-177.32 72.36 -171.81 46.91 -161.08 26.45 C-147.86 3.63 -125.4 -13.25 -100.05 -20.26 C-65.89 -28.56 -28.38 -20.41 0 0 Z " fill="#F37727" transform="translate(401,203)"/>
</svg>
