<?xml version="1.0" standalone="no"?>
<!DOCTYPE svg PUBLIC "-//W3C//DTD SVG 20010904//EN"
 "http://www.w3.org/TR/2001/REC-SVG-20010904/DTD/svg10.dtd">
<svg version="1.0" xmlns="http://www.w3.org/2000/svg"
 width="512.000000pt" height="512.000000pt" viewBox="0 0 512.000000 512.000000"
 preserveAspectRatio="xMidYMid meet">

<g transform="translate(0.000000,512.000000) scale(0.100000,-0.100000)"
fill="#000000" stroke="none">
<path d="M2567 5084 c-100 -99 -142 -405 -92 -669 7 -38 11 -73 9 -76 -2 -3
-38 -9 -81 -13 -188 -16 -418 -84 -610 -181 -70 -36 -130 -65 -133 -65 -4 0
-17 25 -29 55 -35 85 -152 253 -229 330 -125 125 -236 173 -287 125 -22 -20
-25 -32 -25 -90 0 -147 115 -376 274 -547 l54 -58 -112 -115 c-94 -97 -196
-223 -196 -244 0 -4 77 -6 172 -6 l171 0 91 88 c203 195 415 316 670 382 344
88 675 55 1002 -100 144 -68 262 -150 386 -267 l107 -103 171 0 c117 0 170 3
170 11 0 15 -113 159 -192 244 l-66 70 97 101 c168 176 280 395 281 546 0 61
-16 95 -50 107 -67 23 -152 -23 -271 -146 -118 -122 -175 -210 -260 -400 l-14
-32 -85 50 c-187 111 -400 192 -606 229 l-121 22 14 57 c8 31 17 126 20 211 6
168 -8 279 -48 386 -43 113 -123 157 -182 98z"/>
<path d="M400 2555 l0 -545 140 0 140 0 0 210 0 210 173 -2 172 -3 -3 -207 -3
-208 140 0 141 0 0 545 0 545 -135 0 -135 0 -2 -192 -3 -193 -172 -3 -173 -2
0 195 0 195 -140 0 -140 0 0 -545z"/>
<path d="M1630 2555 l0 -545 330 0 330 0 0 115 0 115 -190 0 -191 0 3 103 3
102 168 3 167 2 0 120 0 120 -170 0 -170 0 0 90 0 90 190 0 190 0 0 115 0 115
-330 0 -330 0 0 -545z"/>
<path d="M2617 2978 c-9 -156 -9 -675 0 -840 l6 -128 329 0 328 0 0 140 0 140
-192 2 -193 3 -3 403 -2 402 -134 0 -133 0 -6 -122z"/>
<path d="M3590 2743 c0 -197 3 -442 7 -545 l6 -188 138 0 139 0 2 279 3 279
135 -124 c74 -68 140 -122 147 -121 6 1 68 55 137 120 69 64 130 117 136 117
6 0 10 -97 10 -274 l0 -273 48 -7 c26 -3 86 -3 135 0 l87 7 0 543 0 544 -63 0
-62 0 -214 -200 c-118 -110 -218 -199 -222 -198 -4 2 -85 75 -180 163 -263
245 -250 235 -325 235 l-64 0 0 -357z"/>
<path d="M1140 1538 c0 -20 80 -119 178 -220 l94 -96 -74 -86 c-137 -159 -238
-354 -254 -488 -8 -67 13 -124 51 -138 110 -42 342 174 475 440 24 47 44 86
45 88 1 2 31 -14 65 -34 181 -106 439 -189 659 -213 51 -6 96 -12 99 -15 2 -3
-2 -36 -9 -73 -20 -100 -17 -338 4 -443 21 -100 71 -214 105 -241 108 -85 216
104 229 401 5 115 -9 264 -33 347 -5 19 -1 22 43 28 91 13 238 47 328 76 103
34 284 119 368 173 32 20 61 36 65 36 4 0 26 -39 47 -87 108 -241 313 -458
461 -488 25 -5 38 -1 60 19 27 23 29 29 28 93 -2 158 -127 395 -297 565 l-79
78 75 83 c77 87 157 189 157 200 0 4 -79 7 -175 7 l-174 0 -73 -66 c-228 -206
-456 -326 -731 -386 -147 -32 -445 -32 -594 0 -266 57 -485 170 -701 362
l-101 90 -171 0 c-122 0 -170 -3 -170 -12z"/>
</g>
</svg>
