<?xml version="1.0" standalone="no"?>
<!DOCTYPE svg PUBLIC "-//W3C//DTD SVG 20010904//EN"
 "http://www.w3.org/TR/2001/REC-SVG-20010904/DTD/svg10.dtd">
<svg version="1.0" xmlns="http://www.w3.org/2000/svg"
 width="512.000000pt" height="512.000000pt" viewBox="0 0 512.000000 512.000000"
 preserveAspectRatio="xMidYMid meet">

<g transform="translate(0.000000,512.000000) scale(0.100000,-0.100000)"
fill="#000000" stroke="none">
<path d="M2343 2878 c-28 -7 -54 -44 -232 -322 -111 -172 -201 -316 -201 -320
0 -3 30 -6 68 -6 l67 0 160 255 c88 140 164 253 168 252 4 -1 45 -63 91 -137
l84 -135 -164 -5 -164 -5 35 -52 36 -53 169 0 169 0 31 -56 c18 -30 38 -58 45
-60 7 -3 40 -4 73 -2 l61 3 -193 303 c-106 166 -201 311 -210 321 -21 23 -52
30 -93 19z"/>
<path d="M277 2869 c-63 -15 -143 -73 -181 -131 -107 -163 -51 -379 121 -468
65 -33 158 -43 383 -37 238 5 271 13 350 84 28 25 63 69 78 97 23 44 27 63 27
141 0 79 -4 97 -28 147 -31 63 -86 116 -156 150 -44 22 -59 23 -301 25 -140 1
-272 -2 -293 -8z m538 -123 c90 -41 131 -113 123 -212 -6 -69 -46 -128 -107
-161 -43 -22 -52 -23 -279 -23 -274 0 -297 6 -355 88 -29 42 -32 54 -32 119 0
63 3 76 30 115 20 28 49 52 84 71 55 27 55 27 270 27 206 0 218 -1 266 -24z"/>
<path d="M1132 2558 l3 -323 57 -3 58 -3 2 268 3 268 215 3 c142 1 224 -1 242
-9 50 -21 75 -83 54 -134 -26 -61 -40 -65 -248 -65 -104 0 -188 -3 -187 -7 0
-5 82 -79 182 -165 l181 -158 83 0 c46 0 83 2 83 4 0 3 -52 49 -116 103 l-116
98 68 12 c86 16 140 52 172 116 61 117 -3 272 -125 306 -23 7 -156 11 -326 11
l-287 0 2 -322z"/>
<path d="M3015 2866 c-93 -29 -152 -77 -196 -158 -31 -58 -34 -70 -33 -148 0
-65 5 -96 21 -132 32 -70 94 -131 166 -164 61 -28 65 -28 287 -32 l226 -4 36
58 36 59 -261 5 c-173 3 -269 9 -282 17 -35 20 -83 77 -99 115 -40 94 -1 201
94 256 44 27 48 27 257 30 l211 3 36 55 36 54 -247 -1 c-170 0 -261 -4 -288
-13z"/>
<path d="M3620 2580 l0 -301 25 -24 24 -25 291 0 290 0 35 55 c19 30 35 57 35
60 0 3 -130 5 -290 5 l-290 0 0 265 0 265 -60 0 -60 0 0 -300z"/>
<path d="M4545 2871 c-85 -21 -162 -82 -206 -163 -31 -58 -34 -70 -34 -148 1
-65 6 -96 22 -132 32 -69 94 -131 166 -164 61 -28 64 -28 287 -32 l225 -3 37
58 37 58 -257 5 c-273 5 -279 6 -335 59 -26 23 -57 71 -57 86 0 3 120 5 268 5
l267 1 32 52 31 52 -299 3 -300 2 7 23 c13 43 57 89 108 113 48 23 61 24 252
24 l201 0 37 55 36 55 -247 -1 c-137 -1 -261 -4 -278 -8z"/>
</g>
</svg>
